<?xml version="1.0" encoding="UTF-8"?><svg id="Layer_2" xmlns="http://www.w3.org/2000/svg" viewBox="0 0 482.63 470.04"><defs><style>.cls-1{fill:#3a3a3a;}</style></defs><path class="cls-1" d="m0,239.71c.57-7.34,1.08-14.68,1.73-22.01,4.32-48.77,22.33-92.09,53.51-129.59C98.16,36.49,153.18,6.98,220.32,1.03c51.16-4.53,99.26,5.77,143.41,32.15,53.48,31.96,89.95,77.83,108.23,137.48,14.74,48.09,14.02,96.46-.99,144.38-9.95,31.76-26.85,59.75-48.66,84.88-23.81,27.43-52.41,48.16-85.76,62.41-5.63,2.41-11.35,4.66-17.17,6.55-10.29,3.33-17.32-1.59-17.41-12.35-.19-21.37-.03-42.75-.1-64.13-.05-15.39-2.38-30.11-13.2-42.16-.37-.41-.41-1.11-.85-2.4,3.17-.55,6.02-1.1,8.89-1.52,17.88-2.6,34.95-7.47,50.8-16.49,19.77-11.25,33.16-27.5,40.24-49.07,8.35-25.42,11.08-51.23,5.16-77.54-2.95-13.09-9.01-24.78-17.71-35.01-2.71-3.19-3.4-6.25-2.11-10.36,5.83-18.67,3.61-37.01-3.4-54.88-.81-2.06-4.09-4.41-6.24-4.43-5.09-.04-10.4.6-15.26,2.11-14.79,4.59-28.56,11.5-41.53,19.92-3.27,2.13-6.37,2.76-10.2,1.82-36.71-8.92-73.45-8.89-110.15.04-3.66.89-6.51-.01-9.79-1.67-13.15-6.64-26.43-13.03-39.82-19.19-3.51-1.61-7.51-2.32-11.37-2.98-9.05-1.55-11.33,0-14.08,8.77-5.39,17.21-6.52,34.45-1.19,51.98.71,2.33-.29,6.1-1.89,8.06-17.23,21.05-23.23,45.3-20.63,71.88,1.08,11.06,2.6,22.17,5.17,32.97,8.13,34.16,30.18,55.8,62.91,66.8,10.07,3.38,20.72,5.03,31.12,7.43,2.51.58,5.05,1.03,9.28,1.88-8.74,8.99-11.69,19.17-14.54,29.46-.39,1.41-2.62,2.75-4.28,3.3-25.33,8.44-46.64,6.72-62.61-18.34-6.21-9.74-13.42-18.15-23.86-23.49-6.74-3.44-13.68-5.59-21.33-4.21-5.66,1.03-6.92,4.06-3.3,8.53,1.85,2.29,4.06,4.49,6.55,6.02,11.74,7.26,19,18.09,24.55,30.29,3.77,8.29,7.05,16.75,14.3,22.97,11.43,9.79,25.15,12.55,39.48,13.09,7.97.3,15.99-.44,23.98-.96,5.28-.34,6.05.07,6.09,5.54.08,11.95.12,23.89.01,35.84-.1,10.87-7.4,16.34-17.69,12.32-13.43-5.26-27-10.59-39.57-17.57-48.58-27-83.03-67.05-105.01-117.79C7.23,306.71,1.35,278.64.93,249.5c-.04-2.64-.61-5.27-.93-7.91,0-.63,0-1.26,0-1.89Z"/></svg>